<svg xmlns="http://www.w3.org/2000/svg" width="43.28" height="44.55" viewBox="0 0 43.28 44.55">
  <g id="earth-grid" transform="translate(-7.127 0.25)">
    <path id="Path_39" data-name="Path 39" d="M363.151,293.266a4.426,4.426,0,1,0-3.347,1.53A4.422,4.422,0,0,0,363.151,293.266Zm-6.482-2.9a3.133,3.133,0,0,1,.764-2.052h0a3.135,3.135,0,1,1-.765,2.052Z" transform="translate(-318.061 -261.341)" fill="#fff" stroke="#fff" stroke-width="0.5"/>
    <path id="Path_40" data-name="Path 40" d="M323.417,242.1a8.408,8.408,0,0,0-13.759,9.086.646.646,0,1,0,1.2-.487,7.122,7.122,0,1,1,12.313,1.569l-3.511,4.842a7.677,7.677,0,0,0-1.3,2.9l-.263,1.216a.659.659,0,0,1-1.288,0l-.263-1.216a7.677,7.677,0,0,0-1.3-2.9l-3.034-4.183a.646.646,0,0,0-1.046.758l3.034,4.183a6.391,6.391,0,0,1,1.08,2.417l.263,1.216a1.95,1.95,0,0,0,3.812,0l.263-1.216a6.392,6.392,0,0,1,1.08-2.417l3.507-4.836a8.393,8.393,0,0,0-.791-10.933Z" transform="translate(-275.709 -218.991)" fill="#fff" stroke="#fff" stroke-width="0.5"/>
    <path id="Path_41" data-name="Path 41" d="M48.153,44.894a3.673,3.673,0,0,0,3.335-5.213.646.646,0,0,0-1.172.542,2.381,2.381,0,1,1-2.162-1.384,2.422,2.422,0,0,1,.364.028.646.646,0,0,0,.2-1.277,3.714,3.714,0,0,0-.559-.042,3.673,3.673,0,0,0,0,7.346Z" transform="translate(-33.911 -34.317)" fill="#fff" stroke="#fff" stroke-width="0.5"/>
    <path id="Path_42" data-name="Path 42" d="M11.537,15.274a4.988,4.988,0,0,1,.843,1.887l.21.974a1.69,1.69,0,0,0,3.3,0l.21-.974a4.989,4.989,0,0,1,.843-1.887L19.755,11.4A6.865,6.865,0,1,0,8.725,11.4ZM10.348,3.324a5.531,5.531,0,0,1,3.893-1.586l.136,0a5.574,5.574,0,0,1,4.337,8.9L15.9,14.516a6.275,6.275,0,0,0-1.06,2.372l-.21.974a.4.4,0,0,1-.779,0l-.21-.974a6.273,6.273,0,0,0-1.06-2.372L9.766,10.633a5.574,5.574,0,0,1,.582-7.309Z" transform="translate(0 -0.408)" fill="#fff" stroke="#fff" stroke-width="0.5"/>
    <path id="Path_43" data-name="Path 43" d="M390.565,39.886a.646.646,0,0,0,.953.871l.011-.012.045-.05a3.11,3.11,0,0,0-4.691-4.085.646.646,0,0,0,.972.851A1.819,1.819,0,0,1,390.6,39.85Z" transform="translate(-346.71 -32.49)" fill="#fff" stroke="#fff" stroke-width="0.5"/>
    <path id="Path_44" data-name="Path 44" d="M356.553,3.476a.646.646,0,0,0,.9-.148,4.877,4.877,0,1,1,7.876,5.754l-.668.92a.646.646,0,1,0,1.045.758l.663-.914a6.168,6.168,0,1,0-9.966-7.271.721.721,0,0,0,.045.809.643.643,0,0,0,.1.092Z" transform="translate(-318.904 0)" fill="#fff" stroke="#fff" stroke-width="0.5"/>
    <path id="Path_45" data-name="Path 45" d="M49.469,65.531a.645.645,0,0,0-1.127-.433,13.6,13.6,0,0,1-1.272,1.255,18.022,18.022,0,0,1-2.792.721,26.78,26.78,0,0,0,1.81-6.26.646.646,0,1,0-1.27-.232,22.451,22.451,0,0,1-2.1,6.7q-.809.07-1.631.072c-.55,0-1.094-.026-1.632-.073a24.385,24.385,0,0,1-2.272-7.766c1.278.1,2.584.157,3.9.157,1.222,0,2.457-.046,3.668-.138a.646.646,0,0,0-.1-1.288c-1.179.089-2.381.134-3.571.134-1.388,0-2.758-.061-4.095-.178a69.776,69.776,0,0,1-.579-8.537H46.888a.645.645,0,0,0,.167-1.269,71.378,71.378,0,0,0-.545-8.424,38.785,38.785,0,0,1,6.076,1.187,28.479,28.479,0,0,1,.857,4.467.646.646,0,0,0,.641.575.656.656,0,0,0,.072,0,.646.646,0,0,0,.571-.713,29.965,29.965,0,0,0-.687-3.873,21.485,21.485,0,0,1,4.617,2.146,18.246,18.246,0,0,1,.668,3.345.646.646,0,0,0,1.285-.133A19.642,19.642,0,0,0,35.246,30.275a.646.646,0,0,0,.384,1.233,18.2,18.2,0,0,1,2.273-.55,29.787,29.787,0,0,0-2.049,7.689c-.736.081-1.464.176-2.18.291a.646.646,0,0,0,.2,1.275q.884-.142,1.79-.248-.155,1.209-.268,2.5a.646.646,0,0,0,.587.7l.057,0a.646.646,0,0,0,.643-.589c.083-.946.185-1.863.3-2.746,1.344-.117,2.714-.178,4.1-.178s2.758.061,4.095.178a69.777,69.777,0,0,1,.579,8.537H36.417c.009-1.029.036-2.056.085-3.063a.646.646,0,1,0-1.29-.063c-.05,1.028-.078,2.076-.086,3.126H28.558c0-.187.01-.38.018-.58a.646.646,0,0,0-1.291-.051c-.009.218-.015.427-.019.631h-4.5a18.293,18.293,0,0,1,.879-5.012.646.646,0,0,0-1.229-.4A19.633,19.633,0,0,0,49.551,66.727a.645.645,0,0,0-.082-1.2ZM46.325,38.649a29.793,29.793,0,0,0-2.047-7.689,18.284,18.284,0,0,1,2.8.724A16.963,16.963,0,0,1,51.2,37.365a23.378,23.378,0,0,1,.937,2.336A41.266,41.266,0,0,0,46.325,38.649Zm11.656,3.229a26.044,26.044,0,0,0-4.353-1.756,25.254,25.254,0,0,0-1.259-3.3,20.433,20.433,0,0,0-2.264-3.768,18.382,18.382,0,0,1,7.875,8.828ZM41.09,38.364c-1.318,0-2.623.053-3.907.156a24.588,24.588,0,0,1,2.277-7.767q.811-.071,1.63-.072t1.631.073a24.386,24.386,0,0,1,2.272,7.767C43.715,38.418,42.41,38.364,41.09,38.364ZM37.9,67.071a18.177,18.177,0,0,1-2.8-.727,18.318,18.318,0,0,1-5.061-8.014,41.3,41.3,0,0,0,5.813,1.051A29.8,29.8,0,0,0,37.9,67.071ZM35.67,58.062a38.775,38.775,0,0,1-6.079-1.188,29.438,29.438,0,0,1-1.033-7.213h6.567a71.394,71.394,0,0,0,.545,8.4Zm-12.9-8.4h4.5a30.907,30.907,0,0,0,.877,6.762,21.5,21.5,0,0,1-4.615-2.144,18.255,18.255,0,0,1-.759-4.618ZM24.2,56.155a26.06,26.06,0,0,0,4.349,1.753,22.5,22.5,0,0,0,3.506,7.058,18.448,18.448,0,0,1-7.855-8.81Z" transform="translate(-12.876 -26.861)" fill="#fff" stroke="#fff" stroke-width="0.5"/>
  </g>
</svg>
