<svg xmlns="http://www.w3.org/2000/svg" width="42.586" height="35.311" viewBox="0 0 42.586 35.311">
  <g id="group" transform="translate(0 -43.729)">
    <g id="Group_3" data-name="Group 3" transform="translate(0 59.196)">
      <g id="Group_2" data-name="Group 2">
        <path id="Path_46" data-name="Path 46" d="M36.348,232.88H32.179a6.222,6.222,0,0,0-1.639.22,6.243,6.243,0,0,0-5.563-3.42H17.609a6.243,6.243,0,0,0-5.563,3.42,6.222,6.222,0,0,0-1.639-.22H6.238A6.245,6.245,0,0,0,0,239.118v6.664a3.747,3.747,0,0,0,3.743,3.743h35.1a3.747,3.747,0,0,0,3.743-3.743v-6.664A6.245,6.245,0,0,0,36.348,232.88Zm-24.977,3.038V247.03H3.743A1.249,1.249,0,0,1,2.5,245.782v-6.664a3.747,3.747,0,0,1,3.743-3.743h4.169a3.73,3.73,0,0,1,.979.131C11.377,235.643,11.371,235.78,11.371,235.918ZM28.72,247.03H13.866V235.918a3.747,3.747,0,0,1,3.743-3.743h7.369a3.747,3.747,0,0,1,3.743,3.743Zm11.371-1.248a1.249,1.249,0,0,1-1.248,1.248H31.215V235.918c0-.139-.006-.276-.015-.412a3.734,3.734,0,0,1,.979-.131h4.169a3.747,3.747,0,0,1,3.743,3.743Z" transform="translate(0 -229.68)" fill="#fff"/>
      </g>
    </g>
    <g id="Group_5" data-name="Group 5" transform="translate(2.779 50.614)">
      <g id="Group_4" data-name="Group 4" transform="translate(0 0)">
        <path id="Path_47" data-name="Path 47" d="M38.957,126.5a5.543,5.543,0,1,0,5.543,5.543A5.55,5.55,0,0,0,38.957,126.5Zm0,8.591a3.048,3.048,0,1,1,3.048-3.048A3.051,3.051,0,0,1,38.957,135.1Z" transform="translate(-33.414 -126.504)" fill="#fff"/>
      </g>
    </g>
    <g id="Group_7" data-name="Group 7" transform="translate(13.887 43.729)">
      <g id="Group_6" data-name="Group 6" transform="translate(0 0)">
        <path id="Path_48" data-name="Path 48" d="M174.368,43.729a7.406,7.406,0,1,0,7.406,7.406A7.414,7.414,0,0,0,174.368,43.729Zm0,12.316a4.911,4.911,0,1,1,4.911-4.911A4.916,4.916,0,0,1,174.368,56.045Z" transform="translate(-166.962 -43.729)" fill="#fff"/>
      </g>
    </g>
    <g id="Group_9" data-name="Group 9" transform="translate(28.72 50.614)">
      <g id="Group_8" data-name="Group 8" transform="translate(0 0)">
        <path id="Path_49" data-name="Path 49" d="M350.837,126.5a5.543,5.543,0,1,0,5.543,5.543A5.55,5.55,0,0,0,350.837,126.5Zm0,8.591a3.048,3.048,0,1,1,3.048-3.048A3.052,3.052,0,0,1,350.837,135.1Z" transform="translate(-345.294 -126.504)" fill="#fff"/>
      </g>
    </g>
  </g>
</svg>
