<svg xmlns="http://www.w3.org/2000/svg" width="51.556" height="51.556" viewBox="0 0 51.556 51.556">
  <g id="rupee" transform="translate(0.25 0.25)">
    <path id="Path_50" data-name="Path 50" d="M0,25.528a25.528,25.528,0,1,0,49.091-9.835,1.01,1.01,0,0,0-1.863.779A23.482,23.482,0,1,1,33.266,3.323a1.01,1.01,0,1,0,.665-1.906A25.544,25.544,0,0,0,0,25.528Zm0,0" transform="translate(0 0)" fill="#fff" stroke="#fff" stroke-width="0.5"/>
    <path id="Path_51" data-name="Path 51" d="M136.825,95.139a1.009,1.009,0,0,0-1.01-1.01H121.549a1.01,1.01,0,1,0,0,2.019h4.082a5.119,5.119,0,0,1,5.011,4.1h-9.093a1.01,1.01,0,1,0,0,2.019h9.093a5.12,5.12,0,0,1-5.011,4.1h-4.082a1.009,1.009,0,0,0-.694,1.743l10.2,9.642a1.01,1.01,0,1,0,1.387-1.468l-8.359-7.9h1.544a7.141,7.141,0,0,0,7.059-6.121h3.126a1.01,1.01,0,0,0,0-2.019h-3.126a7.121,7.121,0,0,0-2.093-4.1h5.22a1.009,1.009,0,0,0,1.01-1.009Zm0,0" transform="translate(-103.154 -80.553)" fill="#fff" stroke="#fff" stroke-width="0.5"/>
    <path id="Path_52" data-name="Path 52" d="M236.168,24.708a1.01,1.01,0,0,0-1.428,1.428l4.7,4.7a1.01,1.01,0,0,0,1.411.016l8.282-7.911a1.01,1.01,0,1,0-1.394-1.46l-7.569,7.229Zm0,0" transform="translate(-200.632 -18.143)" fill="#fff" stroke="#fff" stroke-width="0.5"/>
  </g>
</svg>
